<svg width="1200" height="1200" viewBox="0 0 1200 1200" fill="none" xmlns="http://www.w3.org/2000/svg">
  <defs>
    <linearGradient id="mainRed" x1="600" y1="180" x2="600" y2="850" gradientUnits="userSpaceOnUse">
      <stop stop-color="#FF4D4D"/>
      <stop offset="1" stop-color="#A80000"/>
    </linearGradient>
    <filter id="mainGlow" x="-20%" y="-20%" width="140%" height="140%">
      <feGaussianBlur stdDeviation="8" result="blur"/>
      <feMerge>
        <feMergeNode in="blur"/>
        <feMergeNode in="SourceGraphic"/>
      </feMerge>
    </filter>
  </defs>
  <g opacity="0.32">
    <circle cx="600" cy="500" r="340" stroke="#3A0A0A" stroke-width="4"/>
    <circle cx="600" cy="500" r="274" stroke="#5A1111" stroke-width="2" stroke-dasharray="10 12"/>
  </g>
  <g filter="url(#mainGlow)">
    <path d="M600 190L678 366L600 542L522 366L600 190Z" fill="url(#mainRed)" stroke="#111111" stroke-width="14"/>
    <path d="M856 296L828 488L650 566L678 374L856 296Z" fill="#F5F5F5" stroke="#111111" stroke-width="14"/>
    <path d="M1010 500L832 582L654 500L832 418L1010 500Z" fill="url(#mainRed)" stroke="#111111" stroke-width="14"/>
    <path d="M856 704L678 626L650 434L828 512L856 704Z" fill="#F5F5F5" stroke="#111111" stroke-width="14"/>
    <path d="M600 810L522 634L600 458L678 634L600 810Z" fill="url(#mainRed)" stroke="#111111" stroke-width="14"/>
    <path d="M344 704L372 512L550 434L522 626L344 704Z" fill="#F5F5F5" stroke="#111111" stroke-width="14"/>
    <path d="M190 500L368 418L546 500L368 582L190 500Z" fill="url(#mainRed)" stroke="#111111" stroke-width="14"/>
    <path d="M344 296L522 374L550 566L372 488L344 296Z" fill="#F5F5F5" stroke="#111111" stroke-width="14"/>
    <circle cx="600" cy="500" r="34" fill="#111111"/>
    <circle cx="600" cy="500" r="16" fill="#FF5A5A"/>
  </g>
  <g opacity="0.72">
    <path d="M600 132V868" stroke="#2D0D0D" stroke-width="4"/>
    <path d="M232 500H968" stroke="#2D0D0D" stroke-width="4"/>
    <path d="M338 238L862 762" stroke="#2D0D0D" stroke-width="3"/>
    <path d="M862 238L338 762" stroke="#2D0D0D" stroke-width="3"/>
  </g>
  <g>
    <text x="600" y="1008" text-anchor="middle" fill="#F3F3F3" font-family="'Segoe UI Black', Arial, sans-serif" font-size="74" letter-spacing="10">RED QUEEN</text>
    <text x="600" y="1054" text-anchor="middle" fill="#B31313" font-family="Consolas, 'Courier New', monospace" font-size="28" letter-spacing="6">BIO-DIGITAL DEFENSE SYSTEM</text>
  </g>
</svg>
