<svg width="1200" height="1200" viewBox="0 0 1200 1200" fill="none" xmlns="http://www.w3.org/2000/svg">
  <defs>
    <linearGradient id="labRed" x1="600" y1="180" x2="600" y2="840" gradientUnits="userSpaceOnUse">
      <stop stop-color="#D93A3A"/>
      <stop offset="1" stop-color="#7F0000"/>
    </linearGradient>
    <filter id="labGlow" x="-22%" y="-22%" width="144%" height="144%">
      <feGaussianBlur stdDeviation="6" result="blur"/>
      <feMerge>
        <feMergeNode in="blur"/>
        <feMergeNode in="SourceGraphic"/>
      </feMerge>
    </filter>
  </defs>
  <g opacity="0.45">
    <circle cx="600" cy="500" r="356" stroke="#210909" stroke-width="3"/>
    <circle cx="600" cy="500" r="308" stroke="#3B0B0B" stroke-width="2" stroke-dasharray="6 8"/>
    <circle cx="600" cy="500" r="252" stroke="#551111" stroke-width="2"/>
    <circle cx="600" cy="500" r="196" stroke="#6C1717" stroke-width="1.5" stroke-dasharray="3 8"/>
    <path d="M244 500H956" stroke="#2D0D0D" stroke-width="3"/>
    <path d="M600 144V856" stroke="#2D0D0D" stroke-width="3"/>
  </g>
  <g filter="url(#labGlow)">
    <path d="M600 184L678 360L600 536L522 360L600 184Z" fill="url(#labRed)" stroke="#131313" stroke-width="12"/>
    <path d="M854 290L826 482L648 560L676 368L854 290Z" fill="#F4F4F4" stroke="#131313" stroke-width="12"/>
    <path d="M1008 500L830 582L652 500L830 418L1008 500Z" fill="url(#labRed)" stroke="#131313" stroke-width="12"/>
    <path d="M854 710L676 632L648 440L826 518L854 710Z" fill="#F4F4F4" stroke="#131313" stroke-width="12"/>
    <path d="M600 816L522 640L600 464L678 640L600 816Z" fill="url(#labRed)" stroke="#131313" stroke-width="12"/>
    <path d="M346 710L374 518L552 440L524 632L346 710Z" fill="#F4F4F4" stroke="#131313" stroke-width="12"/>
    <path d="M192 500L370 418L548 500L370 582L192 500Z" fill="url(#labRed)" stroke="#131313" stroke-width="12"/>
    <path d="M346 290L524 368L552 560L374 482L346 290Z" fill="#F4F4F4" stroke="#131313" stroke-width="12"/>
    <circle cx="600" cy="500" r="30" fill="#111111"/>
    <circle cx="600" cy="500" r="12" fill="#FF5959"/>
  </g>
  <g opacity="0.82">
    <rect x="238" y="904" width="724" height="118" rx="20" stroke="#451010" stroke-width="3"/>
    <text x="600" y="964" text-anchor="middle" fill="#EFEFEF" font-family="'Segoe UI Black', Arial, sans-serif" font-size="62" letter-spacing="8">SECRET LAB</text>
    <text x="600" y="1004" text-anchor="middle" fill="#B51515" font-family="Consolas, 'Courier New', monospace" font-size="24" letter-spacing="6">EXPERIMENTAL AI RESEARCH ARRAY</text>
  </g>
</svg>
