<svg width="1200" height="780" viewBox="0 0 1200 780" fill="none" xmlns="http://www.w3.org/2000/svg">
  <defs>
    <linearGradient id="rqBg" x1="0" y1="0" x2="1200" y2="780" gradientUnits="userSpaceOnUse">
      <stop stop-color="#050505"/>
      <stop offset="1" stop-color="#120202"/>
    </linearGradient>
    <linearGradient id="rqGlow" x1="600" y1="168" x2="600" y2="676" gradientUnits="userSpaceOnUse">
      <stop stop-color="#FF6B7A"/>
      <stop offset="1" stop-color="#B40017"/>
    </linearGradient>
    <filter id="rqBlur" x="-20%" y="-20%" width="140%" height="140%">
      <feGaussianBlur stdDeviation="6" result="blur"/>
      <feMerge>
        <feMergeNode in="blur"/>
        <feMergeNode in="SourceGraphic"/>
      </feMerge>
    </filter>
  </defs>
  <rect width="1200" height="780" rx="28" fill="url(#rqBg)"/>
  <rect x="20" y="20" width="1160" height="740" rx="22" stroke="#2B0B0B" stroke-width="2"/>
  <g opacity="0.28">
    <circle cx="600" cy="392" r="242" stroke="#561010" stroke-width="2"/>
    <circle cx="600" cy="392" r="190" stroke="#6E1515" stroke-width="2" stroke-dasharray="7 9"/>
    <path d="M170 392H1030" stroke="#2F0A0A" stroke-width="2"/>
    <path d="M600 110V676" stroke="#2F0A0A" stroke-width="2"/>
  </g>
  <g filter="url(#rqBlur)">
    <circle cx="600" cy="208" r="62" fill="none" stroke="url(#rqGlow)" stroke-width="6">
      <animate attributeName="opacity" values="0.35;1;0.35" dur="3s" repeatCount="indefinite"/>
    </circle>
    <path d="M556 270C556 240 570 220 600 220C630 220 644 240 644 270V314C688 332 712 370 712 432V528C712 596 664 640 600 640C536 640 488 596 488 528V432C488 370 512 332 556 314V270Z" fill="none" stroke="url(#rqGlow)" stroke-width="8"/>
    <path d="M600 280L612 334L600 388L588 334L600 280Z" fill="url(#rqGlow)">
      <animate attributeName="opacity" values="0.4;1;0.4" dur="1.8s" repeatCount="indefinite"/>
    </path>
    <path d="M548 440C582 422 618 422 652 440" stroke="#FF8A98" stroke-width="5" stroke-linecap="round"/>
    <path d="M550 492C582 474 618 474 650 492" stroke="#FF8A98" stroke-width="5" stroke-linecap="round"/>
    <path d="M560 546C586 532 614 532 640 546" stroke="#FF8A98" stroke-width="5" stroke-linecap="round"/>
    <path d="M600 170V134" stroke="#FFB3BC" stroke-width="4" stroke-linecap="round"/>
    <path d="M722 228L752 208" stroke="#FFB3BC" stroke-width="4" stroke-linecap="round"/>
    <path d="M478 228L448 208" stroke="#FFB3BC" stroke-width="4" stroke-linecap="round"/>
    <path d="M468 610L426 640" stroke="#FFB3BC" stroke-width="4" stroke-linecap="round"/>
    <path d="M732 610L774 640" stroke="#FFB3BC" stroke-width="4" stroke-linecap="round"/>
  </g>
  <g opacity="0.72" font-family="Consolas, 'Courier New', monospace">
    <text x="78" y="76" fill="#FF5563" font-size="22">red_queen_boot.ai</text>
    <text x="78" y="108" fill="#D7D7D7" font-size="18">&gt; initializing holographic cognition shell</text>
    <text x="78" y="132" fill="#D7D7D7" font-size="18">&gt; loading neural ethics suppression layer</text>
    <text x="78" y="156" fill="#D7D7D7" font-size="18">&gt; syncing biometric simulation core</text>
    <text x="78" y="180" fill="#FF7B86" font-size="18">&gt; subject ready for system awakening</text>
  </g>
  <g opacity="0.16">
    <rect x="0" y="150" width="1200" height="4" fill="#FF4957">
      <animate attributeName="y" values="150;660;150" dur="5s" repeatCount="indefinite"/>
    </rect>
  </g>
</svg>
