<svg width="1200" height="1200" viewBox="0 0 1200 1200" fill="none" xmlns="http://www.w3.org/2000/svg">
  <defs>
    <linearGradient id="bg" x1="120" y1="90" x2="1080" y2="1110" gradientUnits="userSpaceOnUse">
      <stop stop-color="#050505"/>
      <stop offset="1" stop-color="#120000"/>
    </linearGradient>
    <linearGradient id="redGlow" x1="600" y1="180" x2="600" y2="1020" gradientUnits="userSpaceOnUse">
      <stop stop-color="#FF3B3B"/>
      <stop offset="1" stop-color="#B10000"/>
    </linearGradient>
    <filter id="softGlow" x="-20%" y="-20%" width="140%" height="140%">
      <feGaussianBlur stdDeviation="8" result="blur"/>
      <feMerge>
        <feMergeNode in="blur"/>
        <feMergeNode in="SourceGraphic"/>
      </feMerge>
    </filter>
  </defs>

  <rect width="1200" height="1200" rx="48" fill="url(#bg)"/>
  <rect x="42" y="42" width="1116" height="1116" rx="30" stroke="#2A0A0A" stroke-width="4"/>

  <g opacity="0.42">
    <circle cx="600" cy="520" r="352" stroke="#3B0B0B" stroke-width="4"/>
    <circle cx="600" cy="520" r="280" stroke="#4B1010" stroke-width="2" stroke-dasharray="10 12"/>
    <circle cx="600" cy="520" r="198" stroke="#5A1111" stroke-width="2"/>
  </g>

  <g filter="url(#softGlow)">
    <path d="M600 192L680 370L600 548L520 370L600 192Z" fill="url(#redGlow)" stroke="#0C0C0C" stroke-width="14"/>
    <path d="M865 301L833 494L656 572L688 380L865 301Z" fill="#F2F2F2" stroke="#0C0C0C" stroke-width="14"/>
    <path d="M1006 520L828 600L650 520L828 440L1006 520Z" fill="url(#redGlow)" stroke="#0C0C0C" stroke-width="14"/>
    <path d="M865 739L688 660L656 468L833 546L865 739Z" fill="#F2F2F2" stroke="#0C0C0C" stroke-width="14"/>
    <path d="M600 848L520 670L600 492L680 670L600 848Z" fill="url(#redGlow)" stroke="#0C0C0C" stroke-width="14"/>
    <path d="M335 739L367 546L544 468L512 660L335 739Z" fill="#F2F2F2" stroke="#0C0C0C" stroke-width="14"/>
    <path d="M194 520L372 440L550 520L372 600L194 520Z" fill="url(#redGlow)" stroke="#0C0C0C" stroke-width="14"/>
    <path d="M335 301L512 380L544 572L367 494L335 301Z" fill="#F2F2F2" stroke="#0C0C0C" stroke-width="14"/>
    <circle cx="600" cy="520" r="36" fill="#050505"/>
    <circle cx="600" cy="520" r="18" fill="#FF4D4D"/>
  </g>

  <g opacity="0.7">
    <path d="M600 132V912" stroke="#2D0D0D" stroke-width="4"/>
    <path d="M210 520H990" stroke="#2D0D0D" stroke-width="4"/>
    <path d="M324 244L876 796" stroke="#2D0D0D" stroke-width="3"/>
    <path d="M876 244L324 796" stroke="#2D0D0D" stroke-width="3"/>
  </g>

  <g>
    <rect x="180" y="936" width="840" height="134" rx="20" fill="#090909" stroke="#451010" stroke-width="3"/>
    <text x="600" y="996" text-anchor="middle" fill="#F4F4F4" font-family="'Segoe UI Black', Arial, sans-serif" font-size="68" letter-spacing="8">RED QUEEN</text>
    <text x="600" y="1040" text-anchor="middle" fill="#FF4D4D" font-family="Consolas, 'Courier New', monospace" font-size="26" letter-spacing="6">BIO-DIGITAL DEFENSE SYSTEM</text>
  </g>
</svg>
